<svg xmlns="http://www.w3.org/2000/svg" width="576" height="183.371" viewBox="0 0 576 183.371"><g transform="translate(-72 -72)"><path d="M159.947,168.055a2.378,2.378,0,0,1-3.266-.059c-7.413-7.284-15.421-11.026-26.544-11.026-23.351,0-35.264,18.823-35.264,40.03s14.295,38.356,36.453,38.356c11.013,0,18.972-3.662,25.759-10.8a2.375,2.375,0,0,1,3.411-.052l11.836,11.836a2.4,2.4,0,0,1-.008,3.388c-10.943,11.03-25.376,15.576-40.889,15.642-31.915.137-58.717-25.25-59.416-57.158-.783-35.665,23.24-61.251,59.071-61.251,15.6,0,30.558,5.152,41.612,16.063a2.392,2.392,0,0,1-.069,3.467Z" fill="#1b5e95"/><path d="M267.932,139.581a2.383,2.383,0,0,0-2.383,2.383v67.959c0,20.824-17.977,23.933-28.694,23.933s-28.691-3.109-28.691-23.933V141.965a2.383,2.383,0,0,0-2.383-2.384H189.035a2.383,2.383,0,0,0-2.383,2.383v67.959c0,27.607,19.706,45.444,50.2,45.444s50.206-17.837,50.206-45.444V141.964a2.383,2.383,0,0,0-2.383-2.383Z" fill="#1b5e95"/><path d="M370.26,139.581h-6.2c-55.752,0-55.82,50.719-55.82,50.719v59.944a2.383,2.383,0,0,0,2.383,2.383h16.746a2.383,2.383,0,0,0,2.383-2.383V198.667c0-24.776,11.435-36.21,32.4-36.21h8.1a2.383,2.383,0,0,0,2.383-2.383v-18.11A2.384,2.384,0,0,0,370.26,139.581Z" fill="#1b5e95"/><path d="M559.576,92.506a86.505,86.505,0,0,0-11.9.825c-60.384,6.37-79.827,61.248-79.827,61.248-.053.116-26.218,68.2-26.218,68.2a1.192,1.192,0,0,1-2.222.007l-31.365-80.177a4.764,4.764,0,0,0-4.438-3.029H385.62a2.383,2.383,0,0,0-2.207,3.281l43.44,106.679a4.766,4.766,0,0,0,4.414,2.969h17.562a4.766,4.766,0,0,0,4.414-2.969l1.618-3.974,31.73-82.719c21.2-46.5,67.749-49.837,72.985-49.837h10.85a2.385,2.385,0,0,0,2.385-2.385V94.891a2.385,2.385,0,0,0-2.385-2.385Z" fill="#1b5e95"/><path d="M617.241,195.033c-.433-28.684-15.8-58.311-55.017-58.311-33.833,0-58.373,25.494-58.373,59.325a72.159,72.159,0,0,0,.474,7.866c3.238,29.654,24.774,51.458,57.66,51.458,18.647,0,33.378-5.7,44.721-17.135a2.4,2.4,0,0,0-.235-3.591l-12.464-9.532a2.372,2.372,0,0,0-3.109.191c-7.187,7.1-15.447,11.484-26.053,11.484-19.352,0-37.333-12.546-38.1-31.611a1.232,1.232,0,0,1,1.238-1.264h79.985C616.331,203.913,617.025,199.972,617.241,195.033Zm-24.137-9.7H527.987a1.221,1.221,0,0,1-1.231-1.263c.744-14.728,14.376-28.761,34.99-28.761,21.185,0,31.677,10.564,32.594,28.736A1.236,1.236,0,0,1,593.1,185.33Z" fill="#1b5e95"/><path d="M627.494,90.123V74.383A2.383,2.383,0,0,0,625.111,72h-15.74a2.383,2.383,0,0,0-2.383,2.383v15.74a2.383,2.383,0,0,1-2.384,2.383H588.865a2.383,2.383,0,0,0-2.383,2.383v15.74a2.383,2.383,0,0,0,2.383,2.383H604.6a2.383,2.383,0,0,1,2.384,2.383v15.74a2.383,2.383,0,0,0,2.383,2.383h15.74a2.383,2.383,0,0,0,2.383-2.383v-15.74a2.383,2.383,0,0,1,2.383-2.383h15.74A2.383,2.383,0,0,0,648,110.629V94.889a2.383,2.383,0,0,0-2.383-2.383h-15.74A2.383,2.383,0,0,1,627.494,90.123Z" fill="#ff7300"/></g></svg>